<mxfile host="app.diagrams.net" agent="Mozilla/5.0 (Windows NT 10.0; Win64; x64) AppleWebKit/537.36 (KHTML, like Gecko) Chrome/133.0.0.0 Safari/537.36" version="26.1.0">
  <diagram id="C5RBs43oDa-KdzZeNtuy" name="Page-1">
    <mxGraphModel dx="2122" dy="2509" grid="1" gridSize="10" guides="1" tooltips="1" connect="1" arrows="1" fold="1" page="1" pageScale="1" pageWidth="827" pageHeight="1169" math="0" shadow="0">
      <root>
        <mxCell id="WIyWlLk6GJQsqaUBKTNV-0" />
        <mxCell id="WIyWlLk6GJQsqaUBKTNV-1" parent="WIyWlLk6GJQsqaUBKTNV-0" />
        <mxCell id="IfVeEimZWiXntgUOP1rZ-59" value="" style="ellipse;whiteSpace=wrap;html=1;strokeColor=default;strokeWidth=5;align=center;verticalAlign=middle;fontFamily=Helvetica;fontSize=12;fontColor=default;fillColor=light-dark(#8ECEFF,var(--ge-dark-color, #121212));" vertex="1" parent="WIyWlLk6GJQsqaUBKTNV-1">
          <mxGeometry x="-180" y="240" width="160" height="60" as="geometry" />
        </mxCell>
        <mxCell id="IfVeEimZWiXntgUOP1rZ-55" value="" style="rhombus;whiteSpace=wrap;html=1;strokeColor=default;align=center;verticalAlign=middle;fontFamily=Helvetica;fontSize=12;fontColor=default;fillColor=light-dark(#FFF1BA,var(--ge-dark-color, #121212));" vertex="1" parent="WIyWlLk6GJQsqaUBKTNV-1">
          <mxGeometry x="-630" y="240" width="130" height="80" as="geometry" />
        </mxCell>
        <mxCell id="IfVeEimZWiXntgUOP1rZ-56" value="" style="rhombus;whiteSpace=wrap;html=1;strokeColor=default;align=center;verticalAlign=middle;fontFamily=Helvetica;fontSize=12;fontColor=default;fillColor=light-dark(#FFF1BA,var(--ge-dark-color, #121212));" vertex="1" parent="WIyWlLk6GJQsqaUBKTNV-1">
          <mxGeometry x="-481.5" y="240" width="123" height="80" as="geometry" />
        </mxCell>
        <mxCell id="IfVeEimZWiXntgUOP1rZ-54" value="" style="ellipse;whiteSpace=wrap;html=1;strokeColor=default;dashed=1;align=center;verticalAlign=middle;fontFamily=Helvetica;fontSize=12;fontColor=default;fillColor=light-dark(#BAFFB2,var(--ge-dark-color, #121212));" vertex="1" parent="WIyWlLk6GJQsqaUBKTNV-1">
          <mxGeometry x="-270" y="120" width="170" height="70" as="geometry" />
        </mxCell>
        <mxCell id="IfVeEimZWiXntgUOP1rZ-22" value="" style="ellipse;whiteSpace=wrap;html=1;strokeColor=default;strokeWidth=5;align=center;verticalAlign=middle;fontFamily=Helvetica;fontSize=12;fontColor=default;fillColor=light-dark(#8ECEFF,var(--ge-dark-color, #121212));" vertex="1" parent="WIyWlLk6GJQsqaUBKTNV-1">
          <mxGeometry x="-310" width="260" height="100" as="geometry" />
        </mxCell>
        <mxCell id="cjfWv3Ki8YZgNgwmw_i2-2" value="" style="rounded=0;whiteSpace=wrap;html=1;fillColor=light-dark(#FFBA19,var(--ge-dark-color, #121212));" parent="WIyWlLk6GJQsqaUBKTNV-1" vertex="1">
          <mxGeometry y="240" width="120" height="60" as="geometry" />
        </mxCell>
        <mxCell id="cjfWv3Ki8YZgNgwmw_i2-3" value="" style="rounded=0;whiteSpace=wrap;html=1;fillColor=light-dark(#FFBA19,var(--ge-dark-color, #121212));" parent="WIyWlLk6GJQsqaUBKTNV-1" vertex="1">
          <mxGeometry x="300" y="240" width="120" height="60" as="geometry" />
        </mxCell>
        <mxCell id="cjfWv3Ki8YZgNgwmw_i2-5" value="" style="rounded=0;whiteSpace=wrap;html=1;fillColor=light-dark(#FFBA19,var(--ge-dark-color, #121212));" parent="WIyWlLk6GJQsqaUBKTNV-1" vertex="1">
          <mxGeometry x="-320" y="240" width="120" height="60" as="geometry" />
        </mxCell>
        <mxCell id="cjfWv3Ki8YZgNgwmw_i2-9" value="" style="rounded=0;whiteSpace=wrap;html=1;fillColor=light-dark(#BCC3FF,var(--ge-dark-color, #121212));" parent="WIyWlLk6GJQsqaUBKTNV-1" vertex="1">
          <mxGeometry x="-40" y="360" width="120" height="60" as="geometry" />
        </mxCell>
        <mxCell id="cjfWv3Ki8YZgNgwmw_i2-10" value="" style="rounded=0;whiteSpace=wrap;html=1;fillColor=light-dark(#BCC3FF,var(--ge-dark-color, #121212));" parent="WIyWlLk6GJQsqaUBKTNV-1" vertex="1">
          <mxGeometry x="-200" y="360" width="120" height="60" as="geometry" />
        </mxCell>
        <mxCell id="cjfWv3Ki8YZgNgwmw_i2-11" value="" style="rounded=0;whiteSpace=wrap;html=1;fillColor=light-dark(#BCC3FF,var(--ge-dark-color, #121212));" parent="WIyWlLk6GJQsqaUBKTNV-1" vertex="1">
          <mxGeometry x="-360" y="360" width="120" height="60" as="geometry" />
        </mxCell>
        <mxCell id="cjfWv3Ki8YZgNgwmw_i2-12" value="" style="rounded=0;whiteSpace=wrap;html=1;fillColor=light-dark(#BCC3FF,var(--ge-dark-color, #121212));" parent="WIyWlLk6GJQsqaUBKTNV-1" vertex="1">
          <mxGeometry x="-520" y="360" width="120" height="60" as="geometry" />
        </mxCell>
        <mxCell id="cjfWv3Ki8YZgNgwmw_i2-13" value="" style="endArrow=classic;html=1;rounded=0;entryX=0.5;entryY=0;entryDx=0;entryDy=0;" parent="WIyWlLk6GJQsqaUBKTNV-1" edge="1">
          <mxGeometry width="50" height="50" relative="1" as="geometry">
            <mxPoint x="-180" y="100" as="sourcePoint" />
            <mxPoint x="-180" y="120" as="targetPoint" />
          </mxGeometry>
        </mxCell>
        <mxCell id="cjfWv3Ki8YZgNgwmw_i2-14" value="" style="edgeStyle=elbowEdgeStyle;elbow=horizontal;endArrow=classic;html=1;curved=0;rounded=0;endSize=8;startSize=8;" parent="WIyWlLk6GJQsqaUBKTNV-1" edge="1">
          <mxGeometry width="50" height="50" relative="1" as="geometry">
            <mxPoint x="-250" y="180" as="sourcePoint" />
            <mxPoint x="-560" y="230" as="targetPoint" />
            <Array as="points">
              <mxPoint x="-560" y="210" />
            </Array>
          </mxGeometry>
        </mxCell>
        <mxCell id="cjfWv3Ki8YZgNgwmw_i2-15" value="" style="edgeStyle=elbowEdgeStyle;elbow=vertical;endArrow=classic;html=1;curved=0;rounded=0;endSize=8;startSize=8;entryX=0.5;entryY=0;entryDx=0;entryDy=0;exitX=0.235;exitY=1;exitDx=0;exitDy=0;exitPerimeter=0;" parent="WIyWlLk6GJQsqaUBKTNV-1" source="IfVeEimZWiXntgUOP1rZ-54" edge="1">
          <mxGeometry width="50" height="50" relative="1" as="geometry">
            <mxPoint x="-219.96000000000004" y="181.01999999999998" as="sourcePoint" />
            <mxPoint x="-420" y="240" as="targetPoint" />
          </mxGeometry>
        </mxCell>
        <mxCell id="cjfWv3Ki8YZgNgwmw_i2-16" value="" style="edgeStyle=elbowEdgeStyle;elbow=vertical;endArrow=classic;html=1;curved=0;rounded=0;endSize=8;startSize=8;entryX=0.5;entryY=0;entryDx=0;entryDy=0;exitX=0.4;exitY=1.034;exitDx=0;exitDy=0;exitPerimeter=0;" parent="WIyWlLk6GJQsqaUBKTNV-1" source="IfVeEimZWiXntgUOP1rZ-54" target="cjfWv3Ki8YZgNgwmw_i2-5" edge="1">
          <mxGeometry width="50" height="50" relative="1" as="geometry">
            <mxPoint x="-196" y="210" as="sourcePoint" />
            <mxPoint x="140" y="360" as="targetPoint" />
            <Array as="points">
              <mxPoint x="-220" y="220" />
            </Array>
          </mxGeometry>
        </mxCell>
        <mxCell id="cjfWv3Ki8YZgNgwmw_i2-17" value="" style="edgeStyle=elbowEdgeStyle;elbow=vertical;endArrow=classic;html=1;curved=0;rounded=0;endSize=8;startSize=8;entryX=0.5;entryY=0;entryDx=0;entryDy=0;" parent="WIyWlLk6GJQsqaUBKTNV-1" edge="1">
          <mxGeometry width="50" height="50" relative="1" as="geometry">
            <mxPoint x="-160" y="190" as="sourcePoint" />
            <mxPoint x="-100" y="240" as="targetPoint" />
            <Array as="points">
              <mxPoint x="-140" y="220" />
            </Array>
          </mxGeometry>
        </mxCell>
        <mxCell id="cjfWv3Ki8YZgNgwmw_i2-18" value="" style="edgeStyle=elbowEdgeStyle;elbow=horizontal;endArrow=classic;html=1;curved=0;rounded=0;endSize=8;startSize=8;entryX=0.5;entryY=0;entryDx=0;entryDy=0;" parent="WIyWlLk6GJQsqaUBKTNV-1" target="cjfWv3Ki8YZgNgwmw_i2-3" edge="1">
          <mxGeometry width="50" height="50" relative="1" as="geometry">
            <mxPoint x="-100" y="160" as="sourcePoint" />
            <mxPoint x="360" y="220" as="targetPoint" />
            <Array as="points">
              <mxPoint x="360" y="160" />
            </Array>
          </mxGeometry>
        </mxCell>
        <mxCell id="cjfWv3Ki8YZgNgwmw_i2-19" value="" style="edgeStyle=elbowEdgeStyle;elbow=vertical;endArrow=classic;html=1;curved=0;rounded=0;endSize=8;startSize=8;" parent="WIyWlLk6GJQsqaUBKTNV-1" target="cjfWv3Ki8YZgNgwmw_i2-2" edge="1">
          <mxGeometry width="50" height="50" relative="1" as="geometry">
            <mxPoint x="-136" y="180" as="sourcePoint" />
            <mxPoint x="-410" y="250" as="targetPoint" />
          </mxGeometry>
        </mxCell>
        <mxCell id="cjfWv3Ki8YZgNgwmw_i2-20" value="&lt;font style=&quot;vertical-align: inherit;&quot;&gt;&lt;font style=&quot;vertical-align: inherit;&quot;&gt;NKOB5W_orarend&lt;/font&gt;&lt;/font&gt;" style="text;strokeColor=none;fillColor=none;html=1;fontSize=24;fontStyle=1;verticalAlign=middle;align=center;" parent="WIyWlLk6GJQsqaUBKTNV-1" vertex="1">
          <mxGeometry x="-230" y="30" width="100" height="40" as="geometry" />
        </mxCell>
        <mxCell id="cjfWv3Ki8YZgNgwmw_i2-21" value="ora" style="text;strokeColor=none;fillColor=none;html=1;fontSize=24;fontStyle=1;verticalAlign=middle;align=center;" parent="WIyWlLk6GJQsqaUBKTNV-1" vertex="1">
          <mxGeometry x="-235" y="135" width="100" height="40" as="geometry" />
        </mxCell>
        <mxCell id="cjfWv3Ki8YZgNgwmw_i2-22" value="&lt;font style=&quot;vertical-align: inherit;&quot;&gt;&lt;font style=&quot;vertical-align: inherit;&quot;&gt;&lt;u&gt;id&lt;/u&gt;&lt;/font&gt;&lt;/font&gt;" style="text;strokeColor=none;fillColor=none;html=1;fontSize=24;fontStyle=1;verticalAlign=middle;align=center;" parent="WIyWlLk6GJQsqaUBKTNV-1" vertex="1">
          <mxGeometry x="-615" y="260" width="100" height="40" as="geometry" />
        </mxCell>
        <mxCell id="IfVeEimZWiXntgUOP1rZ-70" value="" style="edgeStyle=orthogonalEdgeStyle;rounded=0;orthogonalLoop=1;jettySize=auto;html=1;fontFamily=Helvetica;fontSize=12;fontColor=default;" edge="1" parent="WIyWlLk6GJQsqaUBKTNV-1" source="cjfWv3Ki8YZgNgwmw_i2-23" target="IfVeEimZWiXntgUOP1rZ-69">
          <mxGeometry relative="1" as="geometry">
            <Array as="points">
              <mxPoint x="-470" y="330" />
              <mxPoint x="-600" y="330" />
            </Array>
          </mxGeometry>
        </mxCell>
        <mxCell id="cjfWv3Ki8YZgNgwmw_i2-23" value="tipus" style="text;strokeColor=none;fillColor=none;html=1;fontSize=24;fontStyle=1;verticalAlign=middle;align=center;" parent="WIyWlLk6GJQsqaUBKTNV-1" vertex="1">
          <mxGeometry x="-470" y="260" width="100" height="40" as="geometry" />
        </mxCell>
        <mxCell id="cjfWv3Ki8YZgNgwmw_i2-24" value="&lt;font style=&quot;vertical-align: inherit;&quot;&gt;&lt;font style=&quot;vertical-align: inherit;&quot;&gt;Idopont&lt;/font&gt;&lt;/font&gt;" style="text;strokeColor=none;fillColor=none;html=1;fontSize=24;fontStyle=1;verticalAlign=middle;align=center;" parent="WIyWlLk6GJQsqaUBKTNV-1" vertex="1">
          <mxGeometry x="-150" y="250" width="100" height="40" as="geometry" />
        </mxCell>
        <mxCell id="cjfWv3Ki8YZgNgwmw_i2-25" value="kurzus" style="text;strokeColor=none;fillColor=none;html=1;fontSize=24;fontStyle=1;verticalAlign=middle;align=center;" parent="WIyWlLk6GJQsqaUBKTNV-1" vertex="1">
          <mxGeometry x="-310" y="250" width="100" height="40" as="geometry" />
        </mxCell>
        <mxCell id="cjfWv3Ki8YZgNgwmw_i2-26" value="helyszin" style="text;strokeColor=none;fillColor=none;html=1;fontSize=24;fontStyle=1;verticalAlign=middle;align=center;" parent="WIyWlLk6GJQsqaUBKTNV-1" vertex="1">
          <mxGeometry x="10" y="250" width="100" height="40" as="geometry" />
        </mxCell>
        <mxCell id="cjfWv3Ki8YZgNgwmw_i2-27" value="szak" style="text;strokeColor=none;fillColor=none;html=1;fontSize=24;fontStyle=1;verticalAlign=middle;align=center;" parent="WIyWlLk6GJQsqaUBKTNV-1" vertex="1">
          <mxGeometry x="310" y="250" width="100" height="40" as="geometry" />
        </mxCell>
        <mxCell id="cjfWv3Ki8YZgNgwmw_i2-28" value="&lt;font style=&quot;vertical-align: inherit;&quot;&gt;&lt;font style=&quot;vertical-align: inherit;&quot;&gt;&lt;font style=&quot;vertical-align: inherit;&quot;&gt;&lt;font style=&quot;vertical-align: inherit;&quot;&gt;-ig&lt;/font&gt;&lt;/font&gt;&lt;/font&gt;&lt;/font&gt;" style="text;strokeColor=none;fillColor=none;html=1;fontSize=24;fontStyle=1;verticalAlign=middle;align=center;" parent="WIyWlLk6GJQsqaUBKTNV-1" vertex="1">
          <mxGeometry x="-30" y="370" width="100" height="40" as="geometry" />
        </mxCell>
        <mxCell id="IfVeEimZWiXntgUOP1rZ-66" value="" style="edgeStyle=orthogonalEdgeStyle;rounded=0;orthogonalLoop=1;jettySize=auto;html=1;fontFamily=Helvetica;fontSize=12;fontColor=default;exitX=0.5;exitY=1;exitDx=0;exitDy=0;exitPerimeter=0;" edge="1" parent="WIyWlLk6GJQsqaUBKTNV-1" source="cjfWv3Ki8YZgNgwmw_i2-10" target="IfVeEimZWiXntgUOP1rZ-65">
          <mxGeometry relative="1" as="geometry">
            <mxPoint x="-140" y="430" as="sourcePoint" />
          </mxGeometry>
        </mxCell>
        <mxCell id="cjfWv3Ki8YZgNgwmw_i2-29" value="&lt;font style=&quot;vertical-align: inherit;&quot;&gt;&lt;font style=&quot;vertical-align: inherit;&quot;&gt;&lt;font style=&quot;vertical-align: inherit;&quot;&gt;&lt;font style=&quot;vertical-align: inherit;&quot;&gt;&lt;font style=&quot;vertical-align: inherit;&quot;&gt;&lt;font style=&quot;vertical-align: inherit;&quot;&gt;-tol&lt;/font&gt;&lt;/font&gt;&lt;/font&gt;&lt;/font&gt;&lt;/font&gt;&lt;/font&gt;" style="text;strokeColor=none;fillColor=none;html=1;fontSize=24;fontStyle=1;verticalAlign=middle;align=center;" parent="WIyWlLk6GJQsqaUBKTNV-1" vertex="1">
          <mxGeometry x="-190" y="370" width="100" height="40" as="geometry" />
        </mxCell>
        <mxCell id="cjfWv3Ki8YZgNgwmw_i2-30" value="&lt;font style=&quot;vertical-align: inherit;&quot;&gt;&lt;font style=&quot;vertical-align: inherit;&quot;&gt;nap&lt;/font&gt;&lt;/font&gt;" style="text;strokeColor=none;fillColor=none;html=1;fontSize=24;fontStyle=1;verticalAlign=middle;align=center;" parent="WIyWlLk6GJQsqaUBKTNV-1" vertex="1">
          <mxGeometry x="-350" y="370" width="100" height="40" as="geometry" />
        </mxCell>
        <mxCell id="IfVeEimZWiXntgUOP1rZ-63" value="" style="edgeStyle=orthogonalEdgeStyle;rounded=0;orthogonalLoop=1;jettySize=auto;html=1;fontFamily=Helvetica;fontSize=12;fontColor=default;" edge="1" parent="WIyWlLk6GJQsqaUBKTNV-1" target="IfVeEimZWiXntgUOP1rZ-61">
          <mxGeometry relative="1" as="geometry">
            <mxPoint x="-460" y="430" as="sourcePoint" />
          </mxGeometry>
        </mxCell>
        <mxCell id="cjfWv3Ki8YZgNgwmw_i2-31" value="&lt;font style=&quot;vertical-align: inherit;&quot;&gt;&lt;font style=&quot;vertical-align: inherit;&quot;&gt;datum&lt;/font&gt;&lt;/font&gt;" style="text;strokeColor=none;fillColor=none;html=1;fontSize=24;fontStyle=1;verticalAlign=middle;align=center;" parent="WIyWlLk6GJQsqaUBKTNV-1" vertex="1">
          <mxGeometry x="-510" y="370" width="100" height="40" as="geometry" />
        </mxCell>
        <mxCell id="cjfWv3Ki8YZgNgwmw_i2-32" value="" style="edgeStyle=elbowEdgeStyle;elbow=vertical;endArrow=classic;html=1;curved=0;rounded=0;endSize=8;startSize=8;entryX=0.5;entryY=0;entryDx=0;entryDy=0;" parent="WIyWlLk6GJQsqaUBKTNV-1" target="cjfWv3Ki8YZgNgwmw_i2-12" edge="1">
          <mxGeometry width="50" height="50" relative="1" as="geometry">
            <mxPoint x="-147" y="300" as="sourcePoint" />
            <mxPoint x="-410" y="250" as="targetPoint" />
          </mxGeometry>
        </mxCell>
        <mxCell id="cjfWv3Ki8YZgNgwmw_i2-33" value="" style="edgeStyle=elbowEdgeStyle;elbow=vertical;endArrow=classic;html=1;curved=0;rounded=0;endSize=8;startSize=8;entryX=0.342;entryY=0;entryDx=0;entryDy=0;exitX=0.25;exitY=1;exitDx=0;exitDy=0;entryPerimeter=0;" parent="WIyWlLk6GJQsqaUBKTNV-1" target="cjfWv3Ki8YZgNgwmw_i2-11" edge="1">
          <mxGeometry width="50" height="50" relative="1" as="geometry">
            <mxPoint x="-130" y="300" as="sourcePoint" />
            <mxPoint x="-250" y="250" as="targetPoint" />
            <Array as="points">
              <mxPoint x="-290" y="340" />
            </Array>
          </mxGeometry>
        </mxCell>
        <mxCell id="cjfWv3Ki8YZgNgwmw_i2-35" value="" style="edgeStyle=elbowEdgeStyle;elbow=vertical;endArrow=classic;html=1;curved=0;rounded=0;endSize=8;startSize=8;exitX=0.75;exitY=1;exitDx=0;exitDy=0;entryX=0.5;entryY=0;entryDx=0;entryDy=0;" parent="WIyWlLk6GJQsqaUBKTNV-1" target="cjfWv3Ki8YZgNgwmw_i2-9" edge="1">
          <mxGeometry width="50" height="50" relative="1" as="geometry">
            <mxPoint x="-70" y="300" as="sourcePoint" />
            <mxPoint x="70" y="250" as="targetPoint" />
          </mxGeometry>
        </mxCell>
        <mxCell id="cjfWv3Ki8YZgNgwmw_i2-36" value="" style="rounded=0;whiteSpace=wrap;html=1;fillColor=light-dark(#FFBA19,var(--ge-dark-color, #121212));" parent="WIyWlLk6GJQsqaUBKTNV-1" vertex="1">
          <mxGeometry x="150" y="240" width="120" height="60" as="geometry" />
        </mxCell>
        <mxCell id="cjfWv3Ki8YZgNgwmw_i2-37" value="oktato" style="text;strokeColor=none;fillColor=none;html=1;fontSize=24;fontStyle=1;verticalAlign=middle;align=center;" parent="WIyWlLk6GJQsqaUBKTNV-1" vertex="1">
          <mxGeometry x="160" y="250" width="100" height="40" as="geometry" />
        </mxCell>
        <mxCell id="cjfWv3Ki8YZgNgwmw_i2-39" value="" style="edgeStyle=elbowEdgeStyle;elbow=vertical;endArrow=classic;html=1;curved=0;rounded=0;endSize=8;startSize=8;entryX=0.5;entryY=0;entryDx=0;entryDy=0;" parent="WIyWlLk6GJQsqaUBKTNV-1" target="cjfWv3Ki8YZgNgwmw_i2-36" edge="1">
          <mxGeometry width="50" height="50" relative="1" as="geometry">
            <mxPoint x="-130" y="180" as="sourcePoint" />
            <mxPoint x="140" y="360" as="targetPoint" />
            <Array as="points">
              <mxPoint x="40" y="200" />
            </Array>
          </mxGeometry>
        </mxCell>
        <mxCell id="cjfWv3Ki8YZgNgwmw_i2-40" value="" style="endArrow=classic;html=1;rounded=0;entryX=0.75;entryY=0;entryDx=0;entryDy=0;exitX=0.417;exitY=0.983;exitDx=0;exitDy=0;exitPerimeter=0;" parent="WIyWlLk6GJQsqaUBKTNV-1" target="cjfWv3Ki8YZgNgwmw_i2-10" edge="1">
          <mxGeometry width="50" height="50" relative="1" as="geometry">
            <mxPoint x="-109.96000000000004" y="298.98" as="sourcePoint" />
            <mxPoint x="140" y="360" as="targetPoint" />
          </mxGeometry>
        </mxCell>
        <mxCell id="IfVeEimZWiXntgUOP1rZ-61" value="" style="rounded=0;whiteSpace=wrap;html=1;fillColor=light-dark(#FFD2BF,var(--ge-dark-color, #121212));" vertex="1" parent="WIyWlLk6GJQsqaUBKTNV-1">
          <mxGeometry x="-535" y="470" width="150" height="60" as="geometry" />
        </mxCell>
        <mxCell id="IfVeEimZWiXntgUOP1rZ-64" value="&lt;font style=&quot;vertical-align: inherit;&quot;&gt;&lt;font style=&quot;vertical-align: inherit;&quot;&gt;&lt;font style=&quot;vertical-align: inherit;&quot;&gt;&lt;font style=&quot;vertical-align: inherit;&quot;&gt;&lt;font style=&quot;vertical-align: inherit;&quot;&gt;&lt;font style=&quot;vertical-align: inherit;&quot;&gt;datumType&lt;/font&gt;&lt;/font&gt;&lt;/font&gt;&lt;/font&gt;&lt;/font&gt;&lt;/font&gt;" style="text;strokeColor=none;fillColor=none;html=1;fontSize=24;fontStyle=1;verticalAlign=middle;align=center;" vertex="1" parent="WIyWlLk6GJQsqaUBKTNV-1">
          <mxGeometry x="-515" y="480" width="100" height="40" as="geometry" />
        </mxCell>
        <mxCell id="IfVeEimZWiXntgUOP1rZ-65" value="" style="whiteSpace=wrap;html=1;strokeColor=default;align=center;verticalAlign=middle;fontFamily=Helvetica;fontSize=12;fontColor=default;fillColor=light-dark(#FFD2BF,var(--ge-dark-color, #121212));" vertex="1" parent="WIyWlLk6GJQsqaUBKTNV-1">
          <mxGeometry x="-200" y="480" width="120" height="60" as="geometry" />
        </mxCell>
        <mxCell id="IfVeEimZWiXntgUOP1rZ-67" value="&lt;font style=&quot;vertical-align: inherit;&quot;&gt;&lt;font style=&quot;vertical-align: inherit;&quot;&gt;&lt;font style=&quot;vertical-align: inherit;&quot;&gt;&lt;font style=&quot;vertical-align: inherit;&quot;&gt;&lt;font style=&quot;vertical-align: inherit;&quot;&gt;&lt;font style=&quot;vertical-align: inherit;&quot;&gt;&lt;font style=&quot;vertical-align: inherit;&quot;&gt;&lt;font style=&quot;vertical-align: inherit;&quot;&gt;timeType&lt;/font&gt;&lt;/font&gt;&lt;/font&gt;&lt;/font&gt;&lt;/font&gt;&lt;/font&gt;&lt;/font&gt;&lt;/font&gt;" style="text;strokeColor=none;fillColor=none;html=1;fontSize=24;fontStyle=1;verticalAlign=middle;align=center;" vertex="1" parent="WIyWlLk6GJQsqaUBKTNV-1">
          <mxGeometry x="-190" y="490" width="100" height="40" as="geometry" />
        </mxCell>
        <mxCell id="IfVeEimZWiXntgUOP1rZ-68" value="" style="edgeStyle=elbowEdgeStyle;elbow=vertical;endArrow=classic;html=1;curved=0;rounded=0;endSize=8;startSize=8;entryX=0.933;entryY=0;entryDx=0;entryDy=0;exitX=0.4;exitY=1.034;exitDx=0;exitDy=0;exitPerimeter=0;entryPerimeter=0;" edge="1" parent="WIyWlLk6GJQsqaUBKTNV-1" target="IfVeEimZWiXntgUOP1rZ-65">
          <mxGeometry width="50" height="50" relative="1" as="geometry">
            <mxPoint x="-30" y="420" as="sourcePoint" />
            <mxPoint x="-88" y="468" as="targetPoint" />
            <Array as="points">
              <mxPoint x="-48" y="448" />
            </Array>
          </mxGeometry>
        </mxCell>
        <mxCell id="IfVeEimZWiXntgUOP1rZ-69" value="" style="whiteSpace=wrap;html=1;strokeColor=default;align=center;verticalAlign=middle;fontFamily=Helvetica;fontSize=12;fontColor=default;fillColor=light-dark(#FFD2BF,var(--ge-dark-color, #121212));" vertex="1" parent="WIyWlLk6GJQsqaUBKTNV-1">
          <mxGeometry x="-660" y="360" width="120" height="60" as="geometry" />
        </mxCell>
        <mxCell id="IfVeEimZWiXntgUOP1rZ-71" value="&lt;font style=&quot;vertical-align: inherit;&quot;&gt;&lt;font style=&quot;vertical-align: inherit;&quot;&gt;tipusType&lt;/font&gt;&lt;/font&gt;" style="text;strokeColor=none;fillColor=none;html=1;fontSize=24;fontStyle=1;verticalAlign=middle;align=center;" vertex="1" parent="WIyWlLk6GJQsqaUBKTNV-1">
          <mxGeometry x="-650" y="370" width="100" height="40" as="geometry" />
        </mxCell>
      </root>
    </mxGraphModel>
  </diagram>
</mxfile>
